<?xml version="1.0" standalone="no"?>
<!DOCTYPE svg PUBLIC "-//W3C//DTD SVG 20010904//EN"
 "http://www.w3.org/TR/2001/REC-SVG-20010904/DTD/svg10.dtd">
<svg version="1.0" xmlns="http://www.w3.org/2000/svg"
 width="775.000000pt" height="775.000000pt" viewBox="0 0 775.000000 775.000000"
 preserveAspectRatio="xMidYMid meet">
<metadata>
Created by potrace 1.14, written by Peter Selinger 2001-2017
</metadata>
<g transform="translate(0.000000,775.000000) scale(0.100000,-0.100000)"
fill="#000000" stroke="none">
<path d="M1955 6088 c-130 -392 -238 -717 -240 -723 -1 -5 -5 -17 -8 -25 -3
-8 -39 -116 -80 -240 -194 -587 -881 -2658 -1052 -3175 -106 -319 -191 -583
-189 -586 2 -3 567 -5 1255 -5 l1253 1 51 155 c200 597 357 1067 360 1080 2 8
38 119 80 245 42 127 78 235 79 240 2 6 6 17 9 25 3 8 58 174 122 369 l117
353 150 -6 c83 -4 153 -8 157 -10 3 -2 34 -7 68 -10 72 -8 178 -38 211 -61 64
-46 68 -180 11 -405 -11 -42 -89 -281 -494 -1504 -85 -257 -155 -469 -155
-470 0 -2 525 -2 1167 -2 l1167 1 74 220 c457 1376 498 1503 558 1730 82 311
67 390 -105 565 -68 69 -103 96 -167 128 -88 44 -215 89 -339 121 -76 19 -101
24 -162 36 -16 3 -50 10 -78 15 -27 5 -68 13 -90 16 -22 3 -58 10 -80 14 l-40
8 35 2 c101 6 279 21 298 25 10 2 43 6 73 9 156 17 419 75 551 122 362 129
575 377 762 884 142 386 168 718 71 935 -85 193 -305 368 -584 464 -68 23
-233 66 -291 75 -19 3 -46 8 -60 10 -23 4 -61 9 -165 21 -22 3 -67 7 -100 9
-56 5 -104 8 -305 21 -41 3 -140 8 -220 11 -80 3 -206 8 -280 10 -74 3 -815 8
-1647 11 l-1511 5 -237 -714z m2701 -232 c280 -22 387 -81 395 -217 5 -72 -9
-131 -88 -368 -98 -295 -151 -402 -242 -484 -22 -20 -57 -45 -78 -55 -41 -21
-149 -48 -228 -58 -27 -3 -59 -8 -70 -10 -11 -2 -93 -7 -182 -10 -124 -5 -163
-3 -163 6 0 10 387 1186 396 1201 3 6 153 3 260 -5z"/>
</g>
</svg>
